<!-- icon666.com - MILLIONS vector ICONS FREE --><svg viewBox="-48 0 512 512.00016" xmlns="http://www.w3.org/2000/svg"><path d="m238.976562 87.714844c0 44.265625-35.886718 80.152344-80.152343 80.152344s-80.152344-35.886719-80.152344-80.152344 35.886719-80.152344 80.152344-80.152344 80.152343 35.886719 80.152343 80.152344zm0 0" fill="#ffa7dc"></path><path d="m234.144531 85.070312c-15.140625 41.597657-61.136719 63.046876-102.734375 47.90625-27.496094-10.007812-46.175781-33.5-51.316406-60.285156-7.292969 37.972656 13.816406 76.695313 51.316406 90.34375 41.597656 15.140625 87.59375-6.308594 102.734375-47.90625 5.132813-14.101562 6.046875-28.707031 3.410157-42.445312-.796876 4.148437-1.917969 8.289062-3.410157 12.386718zm0 0" fill="#ff8ad5"></path><path d="m17.535156 254.011719h380.726563v250.476562h-380.726563zm0 0" fill="#d4ebf4"></path><path d="m388.214844 254.011719h-370.679688v250.476562h70.132813v-196.625c7.15625-.652343 13.925781-2.664062 20.039062-5.796875 7.519531 3.855469 16.027344 6.046875 25.046875 6.046875 9.015625 0 17.527344-2.191406 25.046875-6.046875 7.523438 3.855469 16.03125 6.046875 25.046875 6.046875 9.019532 0 17.527344-2.191406 25.050782-6.046875 7.519531 3.855469 16.027343 6.046875 25.046874 6.046875 9.015626 0 17.527344-2.191406 25.046876-6.046875 7.523437 3.855469 16.03125 6.046875 25.046874 6.046875 9.019532 0 17.527344-2.191406 25.050782-6.046875 6.109375 3.132813 12.878906 5.144532 20.035156 5.796875v196.625h70.136719v-250.476562zm0 0" fill="#addbea"></path><path d="m234.144531 115.128906c-1.757812 4.828125-3.949219 9.375-6.480469 13.632813l90.78125 33.042969c7.800782 2.839843 16.421876-1.183594 19.261719-8.980469 2.839844-7.800781-1.179687-16.425781-8.980469-19.265625l-90.785156-33.039063c-.796875 4.890625-2.039062 9.78125-3.796875 14.609375zm0 0" fill="#d4ebf4"></path><path d="m90.367188 129.375c9.132812 15.027344 23.234374 27.175781 41.042968 33.660156 9.667969 3.515625 19.570313 5.035156 29.273438 4.808594-10.289063-24.640625-11.710938-53.0625-1.859375-80.128906-28.363281 5-52.261719 20.4375-68.457031 41.660156zm0 0" fill="#feff9e"></path><path d="m158.824219 87.714844c9.851562-27.070313 8.429687-55.488282-1.855469-80.128906-28.164062.660156-54.601562 16.21875-68.476562 41.671874 26.484374 3.40625 51.8125 16.386719 70.332031 38.457032zm0 0" fill="#feff9e"></path><path d="m158.824219 87.714844c18.519531 22.070312 43.847656 35.050781 70.332031 38.457031 1.910156-3.5 3.582031-7.183594 4.988281-11.042969 8.65625-23.789062 5.332031-49.003906-6.863281-69.074218-16.195312 21.222656-40.09375 36.660156-68.457031 41.660156zm0 0" fill="#feff9e"></path><path d="m17.535156 254.011719h40.074219v250.476562h-40.074219zm0 0" fill="#ecce93"></path><path d="m358.183594 254.011719h40.078125v250.476562h-40.078125zm0 0" fill="#ecce93"></path><g fill="#c19371"><path d="m57.609375 311.964844-40.074219 40.078125v61.65625l40.074219-40.078125zm0 0"></path><path d="m17.535156 475.355469v29.132812h40.074219v-69.210937zm0 0"></path><path d="m398.261719 311.964844-40.078125 40.078125v61.65625l40.078125-40.078125zm0 0"></path><path d="m358.183594 475.355469v29.132812h40.078125v-69.210937zm0 0"></path></g><path d="m32.5625 278.054688c-13.832031 0-25.046875-11.214844-25.046875-25.046876v-55.105468c0-16.601563 13.457031-30.058594 30.054687-30.058594h20.039063v85.164062c0 13.835938-11.214844 25.046876-25.046875 25.046876zm0 0" fill="#ff7b7b"></path><path d="m132.753906 278.054688c-13.832031 0-25.046875-11.214844-25.046875-25.046876v-85.164062h50.09375v85.164062c0 13.835938-11.214843 25.046876-25.046875 25.046876zm0 0" fill="#ff7b7b"></path><path d="m232.945312 278.054688c-13.835937 0-25.046874-11.214844-25.046874-25.046876v-85.164062h50.09375v85.164062c0 13.835938-11.214844 25.046876-25.046876 25.046876zm0 0" fill="#ff7b7b"></path><path d="m333.136719 278.054688c-13.835938 0-25.046875-11.214844-25.046875-25.046876v-85.164062h50.09375v85.164062c0 13.835938-11.214844 25.046876-25.046875 25.046876zm0 0" fill="#ff7b7b"></path><path d="m82.65625 278.054688c-13.832031 0-25.046875-11.214844-25.046875-25.046876v-85.164062h50.097656v85.164062c0 13.835938-11.214843 25.046876-25.050781 25.046876zm0 0" fill="#fff"></path><path d="m182.847656 278.054688c-13.832031 0-25.046875-11.214844-25.046875-25.046876v-85.164062h50.097657v85.164062c0 13.835938-11.214844 25.046876-25.050782 25.046876zm0 0" fill="#fff"></path><path d="m283.039062 278.054688c-13.832031 0-25.046874-11.214844-25.046874-25.046876v-85.164062h50.097656v85.164062c0 13.835938-11.214844 25.046876-25.050782 25.046876zm0 0" fill="#fff"></path><path d="m383.230469 278.054688c-13.832031 0-25.046875-11.214844-25.046875-25.046876v-85.164062h20.039062c16.601563 0 30.054688 13.457031 30.054688 30.058594v55.105468c0 13.835938-11.210938 25.046876-25.046875 25.046876zm0 0" fill="#fff"></path><path d="m227.933594 334.164062h90.171875v170.324219h-90.171875zm0 0" fill="#c19371"></path><path d="m87.667969 334.164062h110.210937v100.191407h-110.210937zm0 0" fill="#90e6f4"></path><path d="m227.933594 334.164062v30.054688h60.117187v140.269531h30.054688v-170.324219zm0 0" fill="#bc835c"></path><path d="m87.667969 334.164062v30.054688h80.152343v70.136719h30.058594v-100.191407zm0 0" fill="#55d1e5"></path><path d="m32.5625 248c-13.832031 0-25.046875-11.214844-25.046875-25.050781v30.058593c0 13.832032 11.214844 25.046876 25.046875 25.046876s25.046875-11.214844 25.046875-25.046876v-30.058593c0 13.835937-11.214844 25.050781-25.046875 25.050781zm0 0" fill="#f75959"></path><path d="m132.753906 248c-13.832031 0-25.046875-11.214844-25.046875-25.050781v30.058593c0 13.832032 11.214844 25.046876 25.046875 25.046876 13.832032 0 25.046875-11.214844 25.046875-25.046876v-30.058593c0 13.835937-11.214843 25.050781-25.046875 25.050781zm0 0" fill="#f75959"></path><path d="m232.945312 248c-13.835937 0-25.046874-11.214844-25.046874-25.050781v30.058593c0 13.832032 11.210937 25.046876 25.046874 25.046876 13.832032 0 25.046876-11.214844 25.046876-25.046876v-30.058593c0 13.835937-11.214844 25.050781-25.046876 25.050781zm0 0" fill="#f75959"></path><path d="m333.136719 248c-13.835938 0-25.046875-11.214844-25.046875-25.050781v30.058593c0 13.832032 11.210937 25.046876 25.046875 25.046876 13.832031 0 25.046875-11.214844 25.046875-25.046876v-30.058593c0 13.835937-11.214844 25.050781-25.046875 25.050781zm0 0" fill="#f75959"></path><path d="m82.65625 248c-13.832031 0-25.046875-11.214844-25.046875-25.050781v30.058593c0 13.832032 11.214844 25.046876 25.046875 25.046876 13.835938 0 25.050781-11.214844 25.050781-25.046876v-30.058593c0 13.835937-11.214843 25.050781-25.050781 25.050781zm0 0" fill="#eee"></path><path d="m182.847656 248c-13.832031 0-25.046875-11.214844-25.046875-25.050781v30.058593c0 13.832032 11.214844 25.046876 25.046875 25.046876 13.835938 0 25.050782-11.214844 25.050782-25.046876v-30.058593c0 13.835937-11.214844 25.050781-25.050782 25.050781zm0 0" fill="#eee"></path><path d="m283.039062 248c-13.832031 0-25.046874-11.214844-25.046874-25.050781v30.058593c0 13.832032 11.214843 25.046876 25.046874 25.046876 13.835938 0 25.050782-11.214844 25.050782-25.046876v-30.058593c0 13.835937-11.214844 25.050781-25.050782 25.050781zm0 0" fill="#eee"></path><path d="m383.230469 248c-13.832031 0-25.046875-11.214844-25.046875-25.050781v30.058593c0 13.832032 11.214844 25.046876 25.046875 25.046876 13.835937 0 25.046875-11.214844 25.046875-25.046876v-30.058593c0 13.835937-11.210938 25.050781-25.046875 25.050781zm0 0" fill="#eee"></path><path d="m131.410156 132.976562c-10.910156-3.96875-20.414062-10.078124-28.257812-17.660156-4.664063 4.324219-8.945313 9.027344-12.785156 14.058594 9.132812 15.027344 23.234374 27.175781 41.042968 33.660156 9.667969 3.519532 19.570313 5.035156 29.273438 4.808594-4.015625-9.613281-6.671875-19.800781-7.84375-30.261719-7.15625-.539062-14.355469-2.03125-21.429688-4.605469zm0 0" fill="#f4f067"></path><path d="m334.894531 137.789062h-77.9375c2.042969-3.984374 3.875-8.105468 5.429688-12.378906 1.746093-4.789062 3.125-9.625 4.175781-14.476562l-28.621094-10.414063c-.796875 4.890625-2.039062 9.777344-3.796875 14.609375-1.757812 4.828125-3.949219 9.375-6.480469 13.632813l90.78125 33.042969c7.800782 2.839843 16.421876-1.183594 19.261719-8.980469 1.941407-5.332031.671875-11.042969-2.8125-15.035157zm0 0" fill="#addbea"></path><path d="m378.222656 160.332031h-35.996094c1.03125-1.515625 1.898438-3.167969 2.542969-4.941406.902344-2.484375 1.363281-5.078125 1.363281-7.707031 0-9.441406-5.960937-17.953125-14.835937-21.183594l-34.308594-12.488281-5.140625 14.121093 34.304688 12.488282c2.960937 1.078125 4.949218 3.914062 4.949218 7.0625 0 .871094-.152343 1.734375-.457031 2.566406-1.078125 2.960938-3.914062 4.949219-7.0625 4.949219-.871093 0-1.734375-.152344-2.566406-.457031l-82.6875-30.097657c1.042969-2.253906 2.011719-4.566406 2.875-6.945312.867187-2.382813 1.617187-4.773438 2.265625-7.175781l34.253906 12.46875 5.140625-14.121094-36.714843-13.363282c3.433593-38.605468-19.238282-76.308593-57.339844-90.175781-22.003906-8.007812-45.808594-6.96875-67.035156 2.925781-21.222657 9.898438-37.320313 27.464844-45.328126 49.46875-8.007812 22.007813-6.96875 45.8125 2.925782 67.035157 6.808594 14.605469 17.253906 26.78125 30.277344 35.566406h-72.078126c-20.714843 0-37.570312 16.855469-37.570312 37.574219v55.105468c0 9.210938 3.851562 17.53125 10.019531 23.460938v235.53125h395.753907v-235.527344c6.167968-5.929687 10.019531-14.253906 10.019531-23.464844v-55.105468c0-20.714844-16.855469-37.570313-37.570313-37.570313zm-328.128906 336.640625h-25.046875v-18.507812l25.046875-25.046875zm0-64.808594-25.046875 25.046876v-40.402344l25.046875-25.046875zm0-61.660156-25.046875 25.050782v-40.394532l25.046875-25.046875zm0-61.644531-25.046875 25.046875v-49.222656c2.414063.574218 4.929687.886718 7.515625.886718 6.453125 0 12.46875-1.894531 17.53125-5.144531zm0-55.851563c0 9.667969-7.863281 17.535157-17.53125 17.535157s-17.535156-7.867188-17.535156-17.535157v-55.105468c0-12.429688 10.113281-22.542969 22.542968-22.542969h12.523438zm242.332031-92.675781h-84.5625c8.820313-5.941406 16.605469-13.507812 22.855469-22.460937zm8.148438 15.027344v77.648437c0 9.667969-7.867188 17.535157-17.535157 17.535157-9.667968 0-17.53125-7.867188-17.53125-17.535157v-77.648437zm-50.097657 0v77.648437c0 9.667969-7.863281 17.535157-17.53125 17.535157-9.667968 0-17.535156-7.867188-17.535156-17.535157v-77.648437zm-24.765624-115.847656c6.882812 16.308593 7.890624 35.140625 1.371093 53.046875-.664062 1.824218-1.414062 3.59375-2.207031 5.332031-19.421875-3.515625-37.28125-12.480469-51.625-25.867187 20.09375-5.960938 38.15625-17.164063 52.460938-32.511719zm-42.042969-40.054688c14.363281 5.226563 26.070312 14.550781 34.308593 26.164063-12.753906 15.050781-29.453124 25.996094-48.203124 31.726562 4.886718-20.394531 4.222656-41.65625-1.929688-61.726562 5.339844.675781 10.644531 1.949218 15.824219 3.835937zm-21.339844 82.921875c15.214844 14.425782 33.953125 24.480469 54.40625 29.191406-12.324219 16.257813-30.980469 26.503907-51.023437 28.445313-6.664063-18.578125-7.796876-38.523437-3.382813-57.636719zm38.054687 72.980469v77.648437c0 9.667969-7.867187 17.535157-17.535156 17.535157-9.667968 0-17.53125-7.867188-17.53125-17.535157v-77.648437zm-72.257812-153.476563c7.628906-3.558593 15.660156-5.710937 23.796875-6.496093 6.675781 18.589843 7.84375 38.554687 3.421875 57.679687-15.230469-14.441406-33.992188-24.488281-54.46875-29.195312 7.054688-9.351563 16.332031-16.898438 27.25-21.988282zm-36.21875 94.042969c-7.160156-16.945312-7.664062-35.675781-1.339844-53.054687.664063-1.820313 1.410156-3.59375 2.207032-5.339844 19.417968 3.515625 37.253906 12.507812 51.597656 25.886719-20.09375 5.964843-38.164063 17.15625-52.464844 32.507812zm7.742188 13.917969c12.761718-15.066406 29.460937-26.054688 48.230468-31.792969-4.890625 20.394531-4.210937 41.652344 1.9375 61.726563-5.300781-.664063-10.609375-1.902344-15.835937-3.804688-14.035157-5.109375-25.875-14.199218-34.332031-26.128906zm50.636718 45.515625v77.648437c0 9.667969-7.863281 17.535157-17.53125 17.535157-9.667968 0-17.535156-7.867188-17.535156-17.535157v-77.648437zm-85.160156 0h35.066406v77.648437c0 9.667969-7.867187 17.535157-17.535156 17.535157-9.664062 0-17.53125-7.867188-17.53125-17.535157zm285.542969 321.613281h-25.046875v-117.722656h-15.027344v117.722656h-75.144531v-155.296875h75.144531v22.542969h15.027344v-37.570312h-105.199219v170.324218h-155.296875v-216.546875c5.066406 3.25 11.078125 5.144531 17.53125 5.144531 10.0625 0 19.070312-4.589843 25.050781-11.78125 5.976563 7.191407 14.984375 11.78125 25.046875 11.78125s19.070313-4.589843 25.046875-11.78125c5.976563 7.191407 14.988281 11.78125 25.046875 11.78125 10.0625 0 19.070313-4.589843 25.050782-11.78125 5.976562 7.191407 14.984374 11.78125 25.046874 11.78125 10.058594 0 19.070313-4.589843 25.046876-11.78125 5.976562 7.191407 14.988281 11.78125 25.046874 11.78125 10.0625 0 19.070313-4.589843 25.050782-11.78125 5.976562 7.191407 14.984375 11.78125 25.046875 11.78125 6.453125 0 12.46875-1.894531 17.53125-5.144531zm0-243.964844c0 9.667969-7.863281 17.535157-17.53125 17.535157s-17.535157-7.867188-17.535157-17.535157v-77.648437h35.066407zm40.078125 243.964844h-25.046875v-18.507812l25.046875-25.046875zm0-64.808594-25.046875 25.046876v-40.402344l25.046875-25.046875zm0-61.660156-25.046875 25.050782v-40.394532l25.046875-25.046875zm0-61.644531-25.046875 25.046875v-53.480469c5.0625 3.25 11.078125 5.144531 17.53125 5.144531 2.585937 0 5.101562-.3125 7.515625-.882812zm10.019531-55.851563c0 9.667969-7.867187 17.535157-17.535156 17.535157s-17.53125-7.867188-17.53125-17.535157v-77.648437h12.523437c12.429688 0 22.542969 10.113281 22.542969 22.542969zm0 0"></path><path d="m167.820312 341.675781h22.542969v85.164063h-62.621093v15.027344h77.648437v-115.21875h-37.570313zm0 0"></path><path d="m95.183594 341.675781h57.609375v-15.027343h-72.640625v115.21875h32.5625v-15.027344h-17.53125zm0 0"></path><path d="m250.476562 411.8125h15.03125v15.027344h-15.03125zm0 0" fill="#fff"></path><path d="m172.828125 371.734375h-30.054687v-15.027344h30.054687zm-45.085937 0h-15.027344v-15.027344h15.027344zm0 0" fill="#fff"></path><path d="m197.878906 471.925781h-15.03125v-15.027343h15.03125zm-30.058594 0h-15.027343v-15.027343h15.027343zm-30.058593 0h-15.027344v-15.027343h15.027344zm-30.054688 0h-15.03125v-15.027343h15.03125zm0 0" fill="#fff"></path></svg>